/* XPM */
static char * hide_pressed_xpm[] = {
"13 13 10 1",
" 	c #0D151D",
".	c #352E3A",
"+	c #5C5064",
"@	c #5C5064",
"#	c #16181C",
"$	c #5C5064",
"%	c #271D1A",
"&	c #ABADB0",
"*	c #352E3A",
"=	c #5C5064",
"             ",
" .+@@@@@@@+. ",
"#$@@@@@@@@@$#",
"%@@@@@@@@@@@%",
"%@@@@@@@@@@@%",
"%@@@&@@@&@@@%",
"%@@@&&@&&@@@%",
"%@@@@&&&@@@@%",
"%@@@@@&@@@@@%",
"%@@@@@@@@@@@%",
"#$@@@@@@@@@$#",
" *=@@@@@@@=* ",
"             "};
