/* XPM */
static char * left_inactive_xpm[] = {
"17 2 2 1",
" 	c #5C5064",
".	c #0D151D",
"                .",
"                ."};
