/* XPM */
static char * close_pressed_xpm[] = {
"16 16 14 1",
" 	c #2D2D2D",
".	c #2E2D2D",
"+	c #73233F",
"@	c #5C263A",
"#	c #342C2F",
"$	c #5D263A",
"%	c #6F243E",
"&	c #3B2B31",
"*	c #352C2F",
"=	c #6D243E",
"-	c #3E2B31",
";	c #6C243D",
">	c #5B2739",
",	c #332C2F",
"                ",
"                ",
"                ",
"         ...    ",
"    +@#  #@+    ",
"    $+%&&%+@    ",
"    *%+==+%#    ",
"     -%++=&     ",
"     -%++=&     ",
"    *%+==+%#    ",
"    $+;&&;+@    ",
"    +>,  ,>+    ",
"                ",
"                ",
"                ",
"                "};
