/* XPM */
static char * close_prelight_xpm[] = {
"16 16 16 1",
" 	c None",
".	c #2D2D2D",
"+	c #CB346A",
"@	c #983156",
"#	c #3D2D33",
"$	c #9A3157",
"%	c #C13366",
"&	c #4E2E39",
"*	c #3F2D34",
"=	c #C33367",
"-	c #BF3365",
";	c #542E3C",
">	c #BE3365",
",	c #4C2E39",
"'	c #973156",
")	c #3B2D32",
"................",
"................",
"................",
"................",
"....+@#..#@+....",
"....$+%&.%+@....",
"....*=+--+%#....",
".....;=++-&.....",
".....;=++-&.....",
"....*=+>>+%#....",
"....$+-,,-+@....",
"....+')..)'+....",
"................",
"................",
"................",
"................"};
