/* XPM */
static char * hide_pressed_xpm[] = {
"16 16 2 1",
" 	c #2D2D2D",
".	c #73233F",
"                ",
"                ",
"                ",
"                ",
"                ",
"                ",
"                ",
"    ........    ",
"    ........    ",
"                ",
"                ",
"                ",
"                ",
"                ",
"                ",
"                "};
