/* XPM */
static char * shade_prelight_xpm[] = {
"16 16 2 1",
" 	c #2D2D2D",
".	c #CB346A",
"                ",
"                ",
"                ",
"                ",
"       ..       ",
"      ....      ",
"     ......     ",
"    ........    ",
"   ... .. ...   ",
"       ..       ",
"       ..       ",
"       ..       ",
"                ",
"                ",
"                ",
"                "};
