<?xml version="1.0" encoding="UTF-8" standalone="no"?>
<!-- Created with Inkscape (http://www.inkscape.org/) -->

<svg
   xmlns:dc="http://purl.org/dc/elements/1.1/"
   xmlns:cc="http://creativecommons.org/ns#"
   xmlns:rdf="http://www.w3.org/1999/02/22-rdf-syntax-ns#"
   xmlns:svg="http://www.w3.org/2000/svg"
   xmlns="http://www.w3.org/2000/svg"
   xmlns:sodipodi="http://sodipodi.sourceforge.net/DTD/sodipodi-0.dtd"
   xmlns:inkscape="http://www.inkscape.org/namespaces/inkscape"
   id="svg4486"
   height="19"
   viewBox="0 0 19 19"
   width="19"
   version="1.1"
   inkscape:version="0.48.4 r9939"
   sodipodi:docname="close_dash_prelight.svg">
  <sodipodi:namedview
     pagecolor="#ffffff"
     bordercolor="#666666"
     borderopacity="1"
     objecttolerance="10"
     gridtolerance="10"
     guidetolerance="10"
     inkscape:pageopacity="0"
     inkscape:pageshadow="2"
     inkscape:window-width="640"
     inkscape:window-height="480"
     id="namedview12"
     showgrid="false"
     inkscape:zoom="12.421053"
     inkscape:cx="9.5"
     inkscape:cy="9.5"
     inkscape:window-x="59"
     inkscape:window-y="34"
     inkscape:window-maximized="0"
     inkscape:current-layer="svg4486" />
  <defs
     id="defs4488">
    <filter
       x="-.12"
       y="-.12"
       width="1.24"
       height="1.24"
       style="color-interpolation-filters:sRGB"
       id="filter4195">
      <feGaussianBlur
         stdDeviation="0.75"
         id="feGaussianBlur4197" />
    </filter>
  </defs>
  <metadata
     id="metadata4491">
    <rdf:RDF>
      <cc:Work
         rdf:about="">
        <dc:format>image/svg+xml</dc:format>
        <dc:type
           rdf:resource="http://purl.org/dc/dcmitype/StillImage" />
        <dc:title />
      </cc:Work>
    </rdf:RDF>
  </metadata>
  <g
     transform="translate(290.21 -522.86)"
     id="layer1">
    <g
       transform="translate(-289.71 -511)"
       id="g4131">
      <path
         transform="translate(-76.5 938.36)"
         d="m85.5 97.5a7.5 7.5 0 0 0 -7.5 7.5 7.5 7.5 0 0 0 7.5 7.5 7.5 7.5 0 0 0 7.5 -7.5 7.5 7.5 0 0 0 -7.5 -7.5zm-2.5 4.2227 0.38867 0.38867l2.111 2.11 2.111-2.11 0.389-0.39 0.777 0.78-0.388 0.39-2.112 2.11 2.112 2.11 0.388 0.39-0.777 0.78-0.389-0.39-2.111-2.11-2.111 2.11-0.389 0.39-0.777-0.78 0.388-0.39 2.112-2.11-2.112-2.11-0.388-0.39 0.777-0.78z"
         style="color:#000000;fill:#6f6f6f"
         id="path4133" />
      <rect
         x="-0.5"
         y="1033.9"
         width="19"
         height="19"
         style="color:#000000;fill:none"
         id="rect4135" />
      <path
         transform="translate(-76.5 938.36)"
         style="color:#000000;filter:url(#filter4195);fill:#6f6f6f"
         d="m85.5 97.5a7.5 7.5 0 0 0 -7.5 7.5 7.5 7.5 0 0 0 7.5 7.5 7.5 7.5 0 0 0 7.5 -7.5 7.5 7.5 0 0 0 -7.5 -7.5zm-2.5 4.2227 0.38867 0.38867l2.111 2.11 2.111-2.11 0.389-0.39 0.777 0.78-0.388 0.39-2.112 2.11 2.112 2.11 0.388 0.39-0.777 0.78-0.389-0.39-2.111-2.11-2.111 2.11-0.389 0.39-0.777-0.78 0.388-0.39 2.112-2.11-2.112-2.11-0.388-0.39 0.777-0.78z"
         id="path4137" />
    </g>
  </g>
</svg>
