<?xml version="1.0" standalone="no"?>
<!DOCTYPE svg PUBLIC "-//W3C//DTD SVG 20010904//EN" "http://www.w3.org/TR/2001/REC-SVG-20010904/DTD/svg10.dtd">
<!-- Created using Karbon, part of Calligra: http://www.calligra.org/karbon -->
<svg xmlns="http://www.w3.org/2000/svg" xmlns:xlink="http://www.w3.org/1999/xlink" width="12.8pt" height="12.8pt">
<defs/>
<g id="layer1">
  <rect id="rect3757" transform="translate(1, 1)" fill="#f9f9f9" width="11.20000000000pt" height="11.20000000000pt" rx="0.80000000000pt" ry="0.80000000000pt"/>
  <path id="rect3752" transform="" fill="#ada9a8" d="M2 0C0.892 0 3.25261e-18 0.892 0 2L0 14C0 15.108 0.892 16 2 16L14 16C15.108 16 16 15.108 16 14L16 2C16 0.892 15.108 3.25261e-18 14 0ZM2 1L14 1C14.554 1 15 1.446 15 2L15 14C15 14.554 14.554 15 14 15L2 15C1.446 15 1 14.554 1 14L1 2C1 1.446 1.446 1 2 1Z"/>
  <path id="path5174" transform="translate(2.73312, 3.91758)" fill="#ff8913" d="M8.92028 0.000720929C8.55441 0.0107209 8.19296 0.163021 7.93473 0.427321L3.90544 4.26402L2.52322 2.71512C2.03133 2.05912 0.952665 1.98862 0.382572 2.57512C-0.187521 3.16162 -0.108434 4.26052 0.539524 4.75592L2.92271 7.31582C3.85963 8.25272 4.28176 8.12742 5.22768 7.18152C5.22768 7.18152 8.47814 3.27122 10.3833 1.94952C10.8044 1.55032 10.9802 1.43932 10.761 0.897321C10.5418 0.355321 9.49504 -0.0186791 8.92028 0.000720929Z"/>
 </g>
</svg>
