<?xml version="1.0" standalone="no"?>
<!DOCTYPE svg PUBLIC "-//W3C//DTD SVG 20010904//EN" "http://www.w3.org/TR/2001/REC-SVG-20010904/DTD/svg10.dtd">
<!-- Created using Karbon, part of Calligra: http://www.calligra.org/karbon -->
<svg xmlns="http://www.w3.org/2000/svg" xmlns:xlink="http://www.w3.org/1999/xlink" width="12.8pt" height="12.8pt">
<defs/>
<g id="layer1">
  <rect id="rect3757" transform="translate(1, 1)" fill="#f9f9f9" width="11.20000000000pt" height="11.20000000000pt" rx="0.80000000000pt" ry="0.80000000000pt"/>
  <path id="rect3752" transform="" fill="#ada9a8" d="M2 0C0.892 0 3.25261e-18 0.892 0 2L0 14C0 15.108 0.892 16 2 16L14 16C15.108 16 16 15.108 16 14L16 2C16 0.892 15.108 3.25261e-18 14 0ZM2 1L14 1C14.554 1 15 1.446 15 2L15 14C15 14.554 14.554 15 14 15L2 15C1.446 15 1 14.554 1 14L1 2C1 1.446 1.446 1 2 1Z"/>
  <rect id="rect3931" transform="translate(4, 7)" fill="#ff8d36" width="6.40000000000pt" height="1.60000000000pt"/>
 </g>
</svg>
