<?xml version="1.0" standalone="no"?>
<!DOCTYPE svg PUBLIC "-//W3C//DTD SVG 20010904//EN" "http://www.w3.org/TR/2001/REC-SVG-20010904/DTD/svg10.dtd">
<!-- Created using Karbon, part of Calligra: http://www.calligra.org/karbon -->
<svg xmlns="http://www.w3.org/2000/svg" xmlns:xlink="http://www.w3.org/1999/xlink" width="32pt" height="32pt">
<defs/>
<g id="layer1">
  <rect id="rect3757" transform="translate(1.42857, 1.4286)" fill="#f9f9f9" width="30.00000000000pt" height="30.00000000000pt" rx="0.80000000000pt" ry="0.80000000000pt"/>
  <path id="rect3752" transform="" fill="#ada9a8" d="M5 0C2.23 0 0 2.23 0 5L0 35C0 37.77 2.23 40 5 40L35 40C37.77 40 40 37.77 40 35L40 5C40 2.23 37.77 0 35 0ZM35 2.0536L65 2.0536C66.385 2.0536 68.0357 3.615 68.0357 5L68.0357 35C68.0357 36.385 66.385 38.0357 65 38.0357L35 38.0357C33.615 38.0357 32.0536 36.385 32.0536 35L32.0536 5C32.0536 3.615 33.615 2.0536 35 2.0536Z"/>
  <path id="path5174" transform="translate(6.83281, 9.794)" fill="#ff8913" d="M22.3007 0.00180232C21.386 0.0268023 20.4824 0.407502 19.8368 1.0683L9.76361 10.66L6.30806 6.7878C5.07832 5.1478 2.38166 4.9715 0.956431 6.4378C-0.468802 7.904 -0.271085 10.6513 1.34881 11.8898L7.30677 18.2895C9.64908 20.6318 10.7044 20.3185 13.0692 17.9538C13.0692 17.9538 21.1953 8.178 25.9582 4.8738C27.011 3.8758 27.4504 3.5983 26.9024 2.2433C26.3544 0.888302 23.7376 -0.0466977 22.3007 0.00180232Z"/>
 </g>
</svg>
