<?xml version="1.0" standalone="no"?>
<!DOCTYPE svg PUBLIC "-//W3C//DTD SVG 20010904//EN" "http://www.w3.org/TR/2001/REC-SVG-20010904/DTD/svg10.dtd">
<!-- Created using Karbon, part of Calligra: http://www.calligra.org/karbon -->
<svg xmlns="http://www.w3.org/2000/svg" xmlns:xlink="http://www.w3.org/1999/xlink" width="12.8pt" height="12.8pt">
<defs>
  <filter id="filter0" filterUnits="objectBoundingBox" primitiveUnits="objectBoundingBox" x="-0.04500000000" y="-0.18000000000" width="1.09000000000" height="1.36000000000">
   <feGaussianBlur result="" in="" x="0.00000000000" y="0.00000000000" width="1.00000000000" height="1.00000000000" stdDeviation="0.0234375, 0.09375"/>
  </filter>
 </defs>
<g id="layer1">
  <path id="path3800" transform="translate(1, 1)" fill="#f9f9f9" d="M14 7C14 10.866 10.866 14 7 14C3.13401 14 0 10.866 0 7C0 3.13401 3.13401 0 7 0C10.866 0 14 3.13401 14 7Z"/>
  <path id="path3008" transform="" fill="#ada9a8" d="M8 0C3.58172 8.88178e-16 -3.00685e-17 3.58172 0 8C0 12.4183 3.58172 16 8 16C12.4183 16 16 12.4183 16 8C16 3.58172 12.4183 -1.80643e-15 8 0ZM8 1C11.866 1 15 4.13401 15 8C15 11.866 11.866 15 8 15C4.13401 15 1 11.866 1 8C1 4.13401 4.13401 1 8 1Z"/>
  <rect id="rect3931-1" transform="translate(4, 7.0893)" fill="#555753" filter="url(#filter0)" width="6.40000000000pt" height="1.60000000000pt"/>
  <rect id="rect3931" transform="translate(4, 7)" fill="#ff8913" width="6.40000000000pt" height="1.60000000000pt"/>
 </g>
</svg>
